<?xml version="1.0" encoding="UTF-8"?>
<svg id="Layer_2" xmlns="http://www.w3.org/2000/svg" viewBox="0 0 1346.43 1187.55">
  <defs>
    <style>
      .cls-1 {
        fill: none;
        stroke: #231f20;
        stroke-miterlimit: 10;
        stroke-width: 9px;
      }
    </style>
  </defs>
  <path class="cls-1" d="M0,32.6c5.48,10.37,21.13,36.64,53.57,53.57,25.34,13.23,48.89,14.47,60.71,14.29"/>
  <path class="cls-1" d="M3.57,11.17c59.95,37.64,95.98,77.51,117.86,107.14,32.65,44.21,36.11,68.75,78.57,110.71,14.08,13.91,35.57,30.7,78.57,64.29,56.72,44.3,53.15,38.97,75,57.14,37.51,31.2,89.22,74.21,135.71,135.71,15.25,20.18,32.11,45.22,60.71,50,16.99,2.84,25.81-3.52,42.86,3.57,18.33,7.62,17.83,19.01,39.29,35.71,18.26,14.21,25.27,11.14,50,25,25.26,14.15,33.13,25.87,50,39.29,18.58,14.78,48.35,31.83,96.43,39.29"/>
  <path class="cls-1" d="M200,229.03c186.97,218.08,249.29,286.87,264.29,300,.62.54,28.57,25,28.57,25,37.15,28.03,67.04,50.36,85.71,64.29,0,0,143.98,107.32,235.71,178.57,17.51,13.6,27.13,21.28,39.29,32.14,31.11,27.82,32.94,35.51,53.57,50,18,12.64,20.89,9.79,57.14,28.57,32.7,16.94,56.06,32.57,60.71,35.71,46.51,31.37,41.25,39.23,78.57,60.71,26.81,15.44,36.64,15.47,53.57,32.14,13.16,12.96,16.02,21.6,32.14,35.71,14.55,12.74,27.85,19.39,39.29,25,30.99,15.22,70.61,34.65,117.86,57.14"/>
  <path class="cls-1" d="M525,554.03c28.57,20.24,57.14,40.48,85.71,60.71"/>
  <path class="cls-1" d="M789.76,669.95c20.08,31.6,40.16,63.2,60.24,94.79h0c6.35,14.86,16.35,32.78,32.14,50,11.91,12.99,23.14,21.24,28.57,25,6.51,4.51,21.43,14.16,42.86,21.43,22.26,7.55,25.09,3.56,46.43,10.71,16.48,5.53,27.68,12.23,42.86,21.43,28.52,17.29,34.02,25.72,50,35.71,15.62,9.77,40.35,20.48,78.57,21.43"/>
  <path class="cls-1" d="M839.29,879.03c42.98,18.08,74.94,38.22,96.43,53.57,21.84,15.6,37.17,29.31,64.29,53.57,48.41,43.31,42.57,43.73,75,71.43,46.33,39.57,64.64,44.17,100,82.14,14.74,15.83,25.48,29.98,32.14,39.29"/>
  <path class="cls-1" d="M551.71,542.22l20.44,32"/>
  <path class="cls-1" d="M827.85,807.5c19.07,5.2,38.13,10.41,57.2,15.61"/>
  <path class="cls-1" d="M971.27,919.11c-.35,2-1.57,7.32-6.22,11.56-7.94,7.22-18.63,4.68-19.56,4.44"/>
  <path class="cls-1" d="M966.82,946.66c1.41.3,9.92,2,17.78-3.56,6.7-4.73,8.49-11.61,8.89-13.33"/>
  <path class="cls-1" d="M972.43,961.74c10.83,3.99,22.74,1.99,30.84-5.3,8.85-7.96,9.45-18.88,9.52-21.07"/>
</svg>