<?xml version="1.0" encoding="UTF-8"?>
<svg xmlns="http://www.w3.org/2000/svg" xmlns:xlink="http://www.w3.org/1999/xlink" viewBox="0 0 1357.14 1300">
  <defs>
    <style>
      .cls-1, .cls-2, .cls-3, .cls-4 {
        fill: none;
      }

      .cls-5 {
        fill: url(#USGS_8_Sewage_Disposal-3);
      }

      .cls-5, .cls-6, .cls-7, .cls-8, .cls-9, .cls-2 {
        stroke-width: 3px;
      }

      .cls-5, .cls-6, .cls-7, .cls-8, .cls-9, .cls-2, .cls-3 {
        stroke-miterlimit: 10;
      }

      .cls-5, .cls-6, .cls-7, .cls-8, .cls-9, .cls-2, .cls-3, .cls-4 {
        stroke: #231f20;
      }

      .cls-6 {
        fill: url(#USGS_8_Sewage_Disposal-2);
        opacity: .87;
      }

      .cls-10, .cls-8 {
        fill: #231f20;
      }

      .cls-7 {
        fill: #d1d3d4;
      }

      .cls-9 {
        fill: url(#USGS_8_Sewage_Disposal);
      }

      .cls-3 {
        stroke-width: 9px;
      }

      .cls-4 {
        stroke-linecap: square;
        stroke-width: .3px;
      }
    </style>
    <pattern id="USGS_8_Sewage_Disposal" data-name="USGS 8 Sewage Disposal" x="0" y="0" width="72" height="74.8" patternTransform="translate(-827.14 -473.86)" patternUnits="userSpaceOnUse" viewBox="0 0 72 74.8">
      <g>
        <rect class="cls-1" x="0" y="0" width="72" height="74.8"/>
        <g>
          <line class="cls-4" x1="72" y1="73.95" x2="144" y2="73.95"/>
          <line class="cls-4" x1="72" y1="72.25" x2="144" y2="72.25"/>
          <line class="cls-4" x1="72" y1="70.55" x2="144" y2="70.55"/>
          <line class="cls-4" x1="72" y1="68.85" x2="144" y2="68.85"/>
          <line class="cls-4" x1="72" y1="67.15" x2="144" y2="67.15"/>
          <line class="cls-4" x1="72" y1="65.45" x2="144" y2="65.45"/>
          <line class="cls-4" x1="72" y1="63.75" x2="144" y2="63.75"/>
          <line class="cls-4" x1="72" y1="62.05" x2="144" y2="62.05"/>
          <line class="cls-4" x1="72" y1="60.35" x2="144" y2="60.35"/>
          <line class="cls-4" x1="72" y1="58.65" x2="144" y2="58.65"/>
          <line class="cls-4" x1="72" y1="56.95" x2="144" y2="56.95"/>
          <line class="cls-4" x1="72" y1="55.25" x2="144" y2="55.25"/>
          <line class="cls-4" x1="72" y1="53.55" x2="144" y2="53.55"/>
          <line class="cls-4" x1="72" y1="51.85" x2="144" y2="51.85"/>
          <line class="cls-4" x1="72" y1="50.15" x2="144" y2="50.15"/>
          <line class="cls-4" x1="72" y1="48.45" x2="144" y2="48.45"/>
          <line class="cls-4" x1="72" y1="46.75" x2="144" y2="46.75"/>
          <line class="cls-4" x1="72" y1="45.05" x2="144" y2="45.05"/>
          <line class="cls-4" x1="72" y1="43.35" x2="144" y2="43.35"/>
          <line class="cls-4" x1="72" y1="41.65" x2="144" y2="41.65"/>
          <line class="cls-4" x1="72" y1="39.95" x2="144" y2="39.95"/>
          <line class="cls-4" x1="72" y1="38.25" x2="144" y2="38.25"/>
          <line class="cls-4" x1="72" y1="36.55" x2="144" y2="36.55"/>
          <line class="cls-4" x1="72" y1="34.85" x2="144" y2="34.85"/>
          <line class="cls-4" x1="72" y1="33.15" x2="144" y2="33.15"/>
          <line class="cls-4" x1="72" y1="31.45" x2="144" y2="31.45"/>
          <line class="cls-4" x1="72" y1="29.75" x2="144" y2="29.75"/>
          <line class="cls-4" x1="72" y1="28.05" x2="144" y2="28.05"/>
          <line class="cls-4" x1="72" y1="26.35" x2="144" y2="26.35"/>
          <line class="cls-4" x1="72" y1="24.65" x2="144" y2="24.65"/>
          <line class="cls-4" x1="72" y1="22.95" x2="144" y2="22.95"/>
          <line class="cls-4" x1="72" y1="21.25" x2="144" y2="21.25"/>
          <line class="cls-4" x1="72" y1="19.55" x2="144" y2="19.55"/>
          <line class="cls-4" x1="72" y1="17.85" x2="144" y2="17.85"/>
          <line class="cls-4" x1="72" y1="16.15" x2="144" y2="16.15"/>
          <line class="cls-4" x1="72" y1="14.45" x2="144" y2="14.45"/>
          <line class="cls-4" x1="72" y1="12.75" x2="144" y2="12.75"/>
          <line class="cls-4" x1="72" y1="11.05" x2="144" y2="11.05"/>
          <line class="cls-4" x1="72" y1="9.35" x2="144" y2="9.35"/>
          <line class="cls-4" x1="72" y1="7.65" x2="144" y2="7.65"/>
          <line class="cls-4" x1="72" y1="5.95" x2="144" y2="5.95"/>
          <line class="cls-4" x1="72" y1="4.25" x2="144" y2="4.25"/>
          <line class="cls-4" x1="72" y1="2.55" x2="144" y2="2.55"/>
          <line class="cls-4" x1="72" y1=".85" x2="144" y2=".85"/>
        </g>
        <g>
          <line class="cls-4" y1="73.95" x2="72" y2="73.95"/>
          <line class="cls-4" y1="72.25" x2="72" y2="72.25"/>
          <line class="cls-4" y1="70.55" x2="72" y2="70.55"/>
          <line class="cls-4" y1="68.85" x2="72" y2="68.85"/>
          <line class="cls-4" y1="67.15" x2="72" y2="67.15"/>
          <line class="cls-4" y1="65.45" x2="72" y2="65.45"/>
          <line class="cls-4" y1="63.75" x2="72" y2="63.75"/>
          <line class="cls-4" y1="62.05" x2="72" y2="62.05"/>
          <line class="cls-4" y1="60.35" x2="72" y2="60.35"/>
          <line class="cls-4" y1="58.65" x2="72" y2="58.65"/>
          <line class="cls-4" y1="56.95" x2="72" y2="56.95"/>
          <line class="cls-4" y1="55.25" x2="72" y2="55.25"/>
          <line class="cls-4" y1="53.55" x2="72" y2="53.55"/>
          <line class="cls-4" y1="51.85" x2="72" y2="51.85"/>
          <line class="cls-4" y1="50.15" x2="72" y2="50.15"/>
          <line class="cls-4" y1="48.45" x2="72" y2="48.45"/>
          <line class="cls-4" y1="46.75" x2="72" y2="46.75"/>
          <line class="cls-4" y1="45.05" x2="72" y2="45.05"/>
          <line class="cls-4" y1="43.35" x2="72" y2="43.35"/>
          <line class="cls-4" y1="41.65" x2="72" y2="41.65"/>
          <line class="cls-4" y1="39.95" x2="72" y2="39.95"/>
          <line class="cls-4" y1="38.25" x2="72" y2="38.25"/>
          <line class="cls-4" y1="36.55" x2="72" y2="36.55"/>
          <line class="cls-4" y1="34.85" x2="72" y2="34.85"/>
          <line class="cls-4" y1="33.15" x2="72" y2="33.15"/>
          <line class="cls-4" y1="31.45" x2="72" y2="31.45"/>
          <line class="cls-4" y1="29.75" x2="72" y2="29.75"/>
          <line class="cls-4" y1="28.05" x2="72" y2="28.05"/>
          <line class="cls-4" y1="26.35" x2="72" y2="26.35"/>
          <line class="cls-4" y1="24.65" x2="72" y2="24.65"/>
          <line class="cls-4" y1="22.95" x2="72" y2="22.95"/>
          <line class="cls-4" y1="21.25" x2="72" y2="21.25"/>
          <line class="cls-4" y1="19.55" x2="72" y2="19.55"/>
          <line class="cls-4" y1="17.85" x2="72" y2="17.85"/>
          <line class="cls-4" y1="16.15" x2="72" y2="16.15"/>
          <line class="cls-4" y1="14.45" x2="72" y2="14.45"/>
          <line class="cls-4" y1="12.75" x2="72" y2="12.75"/>
          <line class="cls-4" y1="11.05" x2="72" y2="11.05"/>
          <line class="cls-4" y1="9.35" x2="72" y2="9.35"/>
          <line class="cls-4" y1="7.65" x2="72" y2="7.65"/>
          <line class="cls-4" y1="5.95" x2="72" y2="5.95"/>
          <line class="cls-4" y1="4.25" x2="72" y2="4.25"/>
          <line class="cls-4" y1="2.55" x2="72" y2="2.55"/>
          <line class="cls-4" y1=".85" x2="72" y2=".85"/>
        </g>
        <g>
          <line class="cls-4" x1="-72" y1="73.95" y2="73.95"/>
          <line class="cls-4" x1="-72" y1="72.25" y2="72.25"/>
          <line class="cls-4" x1="-72" y1="70.55" y2="70.55"/>
          <line class="cls-4" x1="-72" y1="68.85" y2="68.85"/>
          <line class="cls-4" x1="-72" y1="67.15" y2="67.15"/>
          <line class="cls-4" x1="-72" y1="65.45" y2="65.45"/>
          <line class="cls-4" x1="-72" y1="63.75" y2="63.75"/>
          <line class="cls-4" x1="-72" y1="62.05" y2="62.05"/>
          <line class="cls-4" x1="-72" y1="60.35" y2="60.35"/>
          <line class="cls-4" x1="-72" y1="58.65" y2="58.65"/>
          <line class="cls-4" x1="-72" y1="56.95" y2="56.95"/>
          <line class="cls-4" x1="-72" y1="55.25" y2="55.25"/>
          <line class="cls-4" x1="-72" y1="53.55" y2="53.55"/>
          <line class="cls-4" x1="-72" y1="51.85" y2="51.85"/>
          <line class="cls-4" x1="-72" y1="50.15" y2="50.15"/>
          <line class="cls-4" x1="-72" y1="48.45" y2="48.45"/>
          <line class="cls-4" x1="-72" y1="46.75" y2="46.75"/>
          <line class="cls-4" x1="-72" y1="45.05" y2="45.05"/>
          <line class="cls-4" x1="-72" y1="43.35" y2="43.35"/>
          <line class="cls-4" x1="-72" y1="41.65" y2="41.65"/>
          <line class="cls-4" x1="-72" y1="39.95" y2="39.95"/>
          <line class="cls-4" x1="-72" y1="38.25" y2="38.25"/>
          <line class="cls-4" x1="-72" y1="36.55" y2="36.55"/>
          <line class="cls-4" x1="-72" y1="34.85" y2="34.85"/>
          <line class="cls-4" x1="-72" y1="33.15" y2="33.15"/>
          <line class="cls-4" x1="-72" y1="31.45" y2="31.45"/>
          <line class="cls-4" x1="-72" y1="29.75" y2="29.75"/>
          <line class="cls-4" x1="-72" y1="28.05" y2="28.05"/>
          <line class="cls-4" x1="-72" y1="26.35" y2="26.35"/>
          <line class="cls-4" x1="-72" y1="24.65" y2="24.65"/>
          <line class="cls-4" x1="-72" y1="22.95" y2="22.95"/>
          <line class="cls-4" x1="-72" y1="21.25" y2="21.25"/>
          <line class="cls-4" x1="-72" y1="19.55" y2="19.55"/>
          <line class="cls-4" x1="-72" y1="17.85" y2="17.85"/>
          <line class="cls-4" x1="-72" y1="16.15" y2="16.15"/>
          <line class="cls-4" x1="-72" y1="14.45" y2="14.45"/>
          <line class="cls-4" x1="-72" y1="12.75" y2="12.75"/>
          <line class="cls-4" x1="-72" y1="11.05" y2="11.05"/>
          <line class="cls-4" x1="-72" y1="9.35" y2="9.35"/>
          <line class="cls-4" x1="-72" y1="7.65" y2="7.65"/>
          <line class="cls-4" x1="-72" y1="5.95" y2="5.95"/>
          <line class="cls-4" x1="-72" y1="4.25" y2="4.25"/>
          <line class="cls-4" x1="-72" y1="2.55" y2="2.55"/>
          <line class="cls-4" x1="-72" y1=".85" y2=".85"/>
        </g>
      </g>
    </pattern>
    <pattern id="USGS_8_Sewage_Disposal-2" data-name="USGS 8 Sewage Disposal" patternTransform="translate(-782.71 -552.38)" xlink:href="#USGS_8_Sewage_Disposal"/>
    <pattern id="USGS_8_Sewage_Disposal-3" data-name="USGS 8 Sewage Disposal" patternTransform="translate(-823.95 -500.71)" xlink:href="#USGS_8_Sewage_Disposal"/>
  </defs>
  <g id="Layer_1">
    <rect class="cls-9" x="167.86" y="98.21" width="1167.86" height="1103.57"/>
    <rect class="cls-6" x="26.79" y="171.88" width="1167.86" height="1103.57"/>
    <g>
      <line class="cls-3" x1="761.88" y1="51.49" x2="1122.16" y2="49.84"/>
      <polygon class="cls-10" points="1066.44 80.15 1063.17 71.28 1121.24 49.84 1062.98 28.94 1066.17 20.04 1148.87 49.71 1066.44 80.15"/>
    </g>
    <g>
      <line class="cls-3" x1="535.87" y1="231.85" x2="291.1" y2="232.98"/>
      <polygon class="cls-10" points="346.82 202.67 350.09 211.54 292.02 232.98 350.29 253.88 347.1 262.77 264.4 233.1 346.82 202.67"/>
    </g>
  </g>
  <g id="Layer_2">
    <circle class="cls-7" cx="751.79" cy="650" r="73.66"/>
    <circle class="cls-2" cx="751.79" cy="650" r="166.09"/>
    <circle class="cls-2" cx="751.79" cy="650" r="269.79" transform="translate(-239.43 721.97) rotate(-45)"/>
    <circle class="cls-2" cx="751.79" cy="650" r="351.65"/>
    <polygon class="cls-8" points="660.71 632.14 630.17 655.71 643.15 692.03 611.3 670.27 580.76 693.84 591.62 656.82 559.77 635.06 598.33 633.94 609.18 596.93 622.16 633.26 660.71 632.14"/>
    <polygon class="cls-8" points="801.79 632.14 771.25 655.71 784.22 692.03 752.37 670.27 721.83 693.84 732.69 656.82 700.84 635.06 739.4 633.94 750.25 596.93 763.23 633.26 801.79 632.14"/>
    <polygon class="cls-8" points="751.59 736.23 721.05 759.79 734.03 796.12 702.18 774.36 671.64 797.92 682.49 760.91 650.65 739.14 689.2 738.03 700.06 701.01 713.03 737.34 751.59 736.23"/>
    <polygon class="cls-8" points="728.13 518.67 697.59 542.23 710.56 578.56 678.71 556.8 648.17 580.36 659.03 543.35 627.18 521.58 665.74 520.47 676.59 483.46 689.57 519.78 728.13 518.67"/>
    <polygon class="cls-8" points="900.89 768.53 870.35 792.1 883.32 828.42 851.47 806.66 820.93 830.23 831.79 793.21 799.94 771.45 838.5 770.33 849.36 733.32 862.33 769.65 900.89 768.53"/>
    <polygon class="cls-8" points="875.45 503.31 844.91 526.87 857.88 563.2 826.03 541.44 795.49 565 806.35 527.99 774.5 506.22 813.06 505.11 823.91 468.1 836.89 504.42 875.45 503.31"/>
    <polygon class="cls-8" points="934.85 623.89 904.31 647.46 917.29 683.78 885.44 662.02 854.9 685.59 865.76 648.57 833.91 626.81 872.47 625.69 883.32 588.68 896.3 625.01 934.85 623.89"/>
    <polygon class="cls-8" points="635.7 777.62 605.16 801.18 618.13 837.51 586.29 815.75 555.75 839.31 566.6 802.3 534.75 780.53 573.31 779.42 584.17 742.4 597.14 778.73 635.7 777.62"/>
    <polygon class="cls-8" points="695.11 863.64 664.57 887.2 677.54 923.53 645.69 901.77 615.15 925.33 626.01 888.32 594.16 866.55 632.72 865.44 643.58 828.42 656.55 864.75 695.11 863.64"/>
    <polygon class="cls-8" points="565.53 636.76 534.99 660.33 547.96 696.65 516.11 674.89 485.57 698.45 496.43 661.44 464.58 639.67 503.14 638.56 513.99 601.55 526.97 637.87 565.53 636.76"/>
    <polygon class="cls-8" points="868.5 677.84 837.96 701.4 850.93 737.73 819.08 715.96 788.54 739.53 799.4 702.51 767.55 680.75 806.11 679.64 816.96 642.62 829.94 678.95 868.5 677.84"/>
    <polygon class="cls-8" points="801.79 876.77 771.25 900.33 784.22 936.66 752.37 914.9 721.83 938.46 732.69 901.45 700.84 879.68 739.4 878.57 750.25 841.56 763.23 877.88 801.79 876.77"/>
  </g>
  <g id="Layer_3">
    <path class="cls-5" d="M1060.71,1201.79c3.75-21.87,5.81-54.02-7.14-87.5-16.9-43.67-43.77-49.36-46.43-82.14-3.63-44.75,43.8-66.52,32.14-96.43-7.54-19.34-28.33-12.71-57.14-42.86-10.27-10.74-8.83-12.84-35.11-56.68-28.74-47.94-39.43-60.4-46.15-67.64-19.86-21.42-32.54-35.1-51.53-35.21-22.12-.14-47.56,18.14-49.41,38.13-2.87,31,53.12,43.4,53.63,82.12.31,23.58-20.33,27.69-18.06,52.97,1.98,22.04,18.08,23.35,28.77,57.75,4.16,13.38,9.08,29.2,3.57,46.43-6.11,19.09-19.25,21.86-17.86,32.14,2.63,19.33,50.51,19.75,53.57,39.29,1.88,11.99-15.63,15.16-21.43,35.71-8.08,28.66,13.46,66.86,32.14,67.86,2.81.15,3.85-.63,7.33-1.36,10.36-2.17,25.26-.27,46.25,15.65"/>
  </g>
</svg>